<?xml version="1.0" standalone="no"?>
<!DOCTYPE svg PUBLIC "-//W3C//DTD SVG 20010904//EN"
 "http://www.w3.org/TR/2001/REC-SVG-20010904/DTD/svg10.dtd">
<svg version="1.0" xmlns="http://www.w3.org/2000/svg"
 width="1024.000000pt" height="1024.000000pt" viewBox="0 0 1024.000000 1024.000000"
 preserveAspectRatio="xMidYMid meet">

<g transform="translate(0.000000,1024.000000) scale(0.100000,-0.100000)"
fill="#ef4444" stroke="none">
<path d="M5420 7405 c0 -5 6 -44 14 -85 8 -41 17 -100 20 -131 l7 -56 -73 -12
c-93 -17 -238 -63 -353 -112 -49 -22 -93 -39 -97 -39 -5 0 -8 59 -8 130 0 143
-10 182 -58 234 -15 16 -45 37 -67 47 -37 17 -74 19 -511 19 l-470 0 -55 -27
c-40 -21 -61 -40 -84 -77 l-30 -49 -3 -483 -3 -483 -483 -3 -484 -3 -43 -30
c-26 -18 -53 -50 -68 -80 l-26 -50 -1 -465 c0 -336 3 -479 12 -515 15 -60 80
-127 140 -144 25 -7 199 -11 496 -11 l457 0 3 -498 3 -498 28 -42 c15 -23 46
-54 69 -69 l42 -28 480 -3 481 -3 55 28 c36 18 65 43 85 71 l30 44 3 244 c2
134 4 244 6 244 1 0 43 -20 92 -44 133 -66 275 -116 409 -143 106 -22 136 -25
260 -20 346 14 654 153 896 404 102 106 164 197 246 361 55 112 66 126 110
154 95 60 181 166 225 280 29 75 35 196 14 278 -29 113 -111 210 -202 240 -22
8 -36 19 -38 33 -29 140 -42 192 -63 252 -104 288 -318 546 -580 697 -79 45
-288 138 -311 138 -5 0 -51 42 -103 93 -102 101 -184 159 -263 190 -59 22
-206 38 -206 22z m851 -680 c141 -90 276 -253 369 -445 61 -126 89 -231 99
-361 6 -93 11 -114 27 -126 11 -8 28 -11 39 -7 55 18 100 15 135 -8 77 -52 92
-176 36 -289 -45 -89 -102 -138 -201 -170 -33 -10 -54 -24 -62 -40 -7 -13 -37
-77 -67 -141 -94 -202 -180 -315 -319 -421 -189 -145 -399 -223 -632 -234
-134 -6 -212 3 -345 44 -102 30 -247 97 -327 149 -153 101 -320 304 -424 516
l-42 86 -67 0 c-167 -1 -288 124 -297 307 -4 72 -2 85 24 135 48 94 115 122
234 100 38 -7 72 -10 75 -7 4 4 15 57 26 119 17 106 62 282 76 305 8 12 377
253 387 253 4 0 6 -47 3 -105 l-5 -105 131 70 c72 38 196 104 276 148 80 44
146 78 148 77 7 -6 -72 -152 -126 -234 -31 -47 -61 -92 -66 -100 -7 -11 1 -12
49 -6 209 26 414 125 565 274 68 66 152 185 172 242 12 35 12 35 109 -26z"/>
<path d="M5170 5802 c-75 -37 -102 -127 -57 -193 61 -91 195 -81 239 18 33 74
4 149 -68 179 -44 18 -72 18 -114 -4z"/>
<path d="M6061 5803 c-36 -18 -67 -60 -76 -105 -9 -39 26 -109 66 -132 62 -37
152 -14 189 47 69 112 -61 250 -179 190z"/>
<path d="M5966 5151 c-31 -28 -79 -63 -108 -78 -49 -26 -62 -28 -163 -28 -100
0 -115 2 -167 28 -31 15 -79 48 -106 72 -56 50 -90 57 -122 25 -37 -37 -27
-77 38 -140 67 -66 149 -106 250 -126 188 -36 335 5 454 128 47 47 58 65 58
91 0 41 -17 64 -51 72 -23 6 -36 -2 -83 -44z"/>
</g>
</svg>
